<svg width="135" height="12" viewBox="0 0 135 12" fill="none" xmlns="http://www.w3.org/2000/svg">
<rect width="135" height="12" fill="white"/>
<path d="M5.728 11.824C8.624 11.824 10.352 9.984 10.864 8.064L9.104 7.488C8.72 8.768 7.632 9.984 5.728 9.984C3.792 9.984 1.968 8.576 1.968 5.92C1.968 3.168 3.84 1.808 5.712 1.808C7.616 1.808 8.672 2.912 9.008 4.288L10.816 3.68C10.304 1.696 8.592 0 5.712 0C2.768 0 0 2.224 0 5.92C0 9.616 2.672 11.824 5.728 11.824Z" fill="black"/>
<path d="M20.368 5.904C20.368 3.168 22.256 1.808 24.16 1.808C26.08 1.808 27.968 3.168 27.968 5.904C27.968 8.64 26.08 10 24.16 10C22.256 10 20.368 8.64 20.368 5.904ZM18.4 5.904C18.4 9.632 21.184 11.824 24.16 11.824C27.136 11.824 29.936 9.632 29.936 5.904C29.936 2.192 27.136 0 24.16 0C21.184 0 18.4 2.192 18.4 5.904Z" fill="black"/>
<path d="M50.843 11.584V0.24H48.235L44.603 8.896L40.923 0.24H38.363V11.584H40.235V3.264L43.739 11.584H45.403L48.939 3.232V11.584H50.843Z" fill="black"/>
<path d="M61.8861 5.456V1.936H63.8861C65.1021 1.936 65.8381 2.624 65.8381 3.712C65.8381 4.784 65.1021 5.456 63.8861 5.456H61.8861ZM64.1741 7.152C66.3501 7.152 67.7901 5.696 67.7901 3.696C67.7901 1.712 66.3501 0.24 64.1741 0.24H59.9661V11.584H61.8861V7.152H64.1741Z" fill="black"/>
<path d="M77.2711 5.904C77.2711 3.168 79.1591 1.808 81.0631 1.808C82.9831 1.808 84.8711 3.168 84.8711 5.904C84.8711 8.64 82.9831 10 81.0631 10C79.1591 10 77.2711 8.64 77.2711 5.904ZM75.3031 5.904C75.3031 9.632 78.0871 11.824 81.0631 11.824C84.0391 11.824 86.8391 9.632 86.8391 5.904C86.8391 2.192 84.0391 0 81.0631 0C78.0871 0 75.3031 2.192 75.3031 5.904Z" fill="black"/>
<path d="M102.675 2.896C102.419 1.632 101.379 0 98.7073 0C96.5953 0 94.8512 1.568 94.8512 3.472C94.8512 5.168 96.0033 6.304 97.7313 6.656L99.3313 6.992C100.307 7.2 100.851 7.792 100.851 8.528C100.851 9.408 100.147 10.096 98.7873 10.096C97.1553 10.096 96.3073 9.008 96.1953 7.824L94.4033 8.336C94.5793 9.968 95.9073 11.824 98.7873 11.824C101.379 11.824 102.803 10.144 102.803 8.384C102.803 6.784 101.731 5.52 99.7313 5.12L98.0993 4.784C97.2193 4.592 96.7713 4.048 96.7713 3.328C96.7713 2.464 97.5713 1.696 98.7233 1.696C100.243 1.696 100.835 2.736 100.947 3.44L102.675 2.896Z" fill="black"/>
<path d="M118.205 11.584V9.792H113.117V6.784H117.725V5.04H113.117V2.032H118.205V0.24H111.197V11.584H118.205Z" fill="black"/>
<path d="M132.638 11.584H134.814L132.254 6.912C133.838 6.528 134.814 5.296 134.814 3.68C134.814 1.76 133.454 0.24 131.262 0.24H126.91V11.584H128.846V7.104H130.254L132.638 11.584ZM128.846 5.408V1.936H130.91C132.094 1.936 132.862 2.624 132.862 3.68C132.862 4.72 132.094 5.408 130.91 5.408H128.846Z" fill="black"/>
</svg>
