<svg width="24" height="24" viewBox="0 0 24 24" fill="none" xmlns="http://www.w3.org/2000/svg">
  <path d="M1.408 6.096H14.176C14.416 7.296 15.496 8.28 16.816 8.28C18.136 8.28 19.216 7.296 19.456 6.096H22.192C22.408 6.096 22.6 5.952 22.6 5.736C22.6 5.52 22.408 5.376 22.192 5.376H19.48C19.312 3.936 18.184 3 16.816 3C15.448 3 14.296 3.936 14.152 5.376H1.408C1.192 5.376 1 5.52 1 5.736C1 5.952 1.192 6.096 1.408 6.096ZM16.816 3.744C17.848 3.744 18.688 4.584 18.688 5.616C18.688 6.648 17.848 7.488 16.816 7.488C15.784 7.488 14.944 6.648 14.944 5.616C14.944 4.584 15.784 3.744 16.816 3.744Z" fill="white"/>
  <path d="M22.192 11.376H11.272C11.104 9.936 9.976 9 8.608 9C7.24 9 6.112 9.936 5.944 11.376H1.408C1.192 11.376 1 11.52 1 11.736C1 11.952 1.192 12.096 1.408 12.096H5.968C6.208 13.296 7.288 14.28 8.608 14.28C9.928 14.28 11.008 13.296 11.248 12.096H22.192C22.408 12.096 22.6 11.952 22.6 11.736C22.6 11.52 22.408 11.376 22.192 11.376ZM8.608 13.488C7.576 13.488 6.736 12.648 6.736 11.616C6.736 10.584 7.576 9.744 8.608 9.744C9.64 9.744 10.48 10.584 10.48 11.616C10.48 12.648 9.64 13.488 8.608 13.488Z" fill="white"/>
  <path d="M22.192 17.376H16.744C16.576 15.936 15.448 15 14.08 15C12.712 15 11.56 15.936 11.416 17.376H1.408C1.192 17.376 1 17.52 1 17.736C1 17.952 1.192 18.096 1.408 18.096H11.44C11.68 19.536 12.76 20.28 14.08 20.28C15.4 20.28 16.48 19.536 16.72 18.096H22.192C22.408 18.096 22.6 17.952 22.6 17.736C22.6 17.52 22.408 17.376 22.192 17.376ZM14.08 19.512C13.048 19.512 12.208 18.672 12.208 17.64C12.208 16.608 13.048 15.768 14.08 15.768C15.112 15.768 15.952 16.608 15.952 17.64C15.952 18.672 15.112 19.512 14.08 19.512Z" fill="white"/>
</svg>
