<svg width="263" height="43" viewBox="0 0 263 43" fill="none" xmlns="http://www.w3.org/2000/svg">
<rect width="263" height="43" fill="white"/>
<path d="M16.7105 42C20.4706 42 23.992 41.2241 27.1553 39.6723C33.5416 36.6284 38.1373 29.9437 38.1373 21.2895C38.1373 16.9325 37.1226 13.1724 35.0337 9.94939C30.9154 3.50346 24.2904 0.519226 16.7105 0.519226H0.356934V42H16.7105ZM9.24994 8.63633H15.7556C19.5157 8.63633 22.6193 9.65096 25.126 11.6802C27.6328 13.7692 28.8862 16.9325 28.8862 21.2298C28.8862 25.5867 27.6328 28.75 25.126 30.7793C22.6193 32.8683 19.5157 33.8829 15.7556 33.8829H9.24994V8.63633Z" fill="black"/>
<path d="M53.6623 42.7162C57.0046 42.7162 60.526 41.1047 62.4956 38.4189V42H70.6127V24.3334C70.6127 15.9178 65.7185 11.8593 57.303 11.8593C49.6634 11.8593 44.4111 15.8582 42.6803 22.125L50.678 23.4381C51.5733 20.1555 53.5429 18.544 56.7062 18.544C60.2276 18.544 61.9584 20.3345 61.9584 23.9753V27.1385C59.8098 25.2286 57.124 24.2737 53.901 24.2737C50.5587 24.2737 47.8132 25.169 45.6645 26.9595C43.4562 28.75 42.3819 30.9584 42.3819 33.5248C42.3819 39.1948 46.9776 42.7162 53.6623 42.7162ZM55.8706 36.9865C53.0057 36.9865 51.0958 35.5541 51.0958 33.4054C51.0958 31.3165 53.0057 29.8244 55.8706 29.8244C58.1983 29.8244 60.2275 30.7793 61.9584 32.7489V33.3457C60.2275 35.7928 58.1983 36.9865 55.8706 36.9865Z" fill="black"/>
<path d="M86.0453 42V25.4674C86.0453 21.3491 88.5521 18.9021 92.0735 18.9021C95.4755 18.9021 97.1467 20.9314 97.1467 24.9302V42H105.801V23.5575C105.801 16.1566 101.742 11.8593 94.5205 11.8593C90.641 11.8593 87.6568 13.4708 85.5678 16.7534V12.5755H77.4508V42H86.0453Z" fill="black"/>
<path d="M161.147 33.8232C159.536 33.8232 158.044 33.2264 156.671 32.0327C155.298 30.839 153.388 28.5113 151.001 25.0496L146.823 19.0214L162.341 0.519226H151.836L136.08 19.857V0.519226H127.187V42H136.08V29.1081L139.899 24.6318L142.943 29.1678C146.345 34.241 149.21 37.643 151.598 39.4933C153.985 41.3435 156.91 42.2387 160.431 42.2387C161.147 42.2387 161.863 42.1194 162.58 41.8806V33.6442C162.221 33.7635 161.744 33.8232 161.147 33.8232Z" fill="black"/>
<path d="M180.824 42.7162C185.48 42.7162 189.3 41.2838 192.224 38.3592C195.149 35.4944 196.641 31.7939 196.641 27.3176C196.641 22.7816 195.149 19.0811 192.224 16.1566C189.3 13.2917 185.48 11.8593 180.824 11.8593C176.229 11.8593 172.409 13.2917 169.484 16.1566C166.56 19.0811 165.068 22.7816 165.068 27.3176C165.068 31.7939 166.56 35.4944 169.484 38.3592C172.409 41.2838 176.229 42.7162 180.824 42.7162ZM175.811 33.7038C174.558 32.1521 173.961 30.0034 173.961 27.3176C173.961 24.5721 174.558 22.4235 175.811 20.8717C177.064 19.3199 178.735 18.544 180.824 18.544C182.913 18.544 184.585 19.3199 185.838 20.8717C187.091 22.4832 187.688 24.6318 187.688 27.3176C187.688 30.0034 187.091 32.1521 185.838 33.7038C184.585 35.2556 182.913 36.0315 180.824 36.0315C178.735 36.0315 177.064 35.2556 175.811 33.7038Z" fill="black"/>
<path d="M215.321 42.7162C222.245 42.7162 226.482 39.3739 229.407 33.2264L221.946 30.0631C220.633 34.062 218.484 36.0315 215.441 36.0315C211.322 36.0315 208.816 32.6295 208.816 27.3176C208.816 21.8863 211.143 18.544 215.023 18.544C218.186 18.544 220.573 21.1701 221.29 26.2433L229.466 24.5721C228.034 15.9775 222.364 11.8593 214.665 11.8593C210.427 11.8593 206.965 13.3514 204.16 16.276C201.355 19.2005 199.923 22.9009 199.923 27.3176C199.923 32.2714 201.355 36.0315 204.16 38.7174C206.965 41.4032 210.725 42.7162 215.321 42.7162Z" fill="black"/>
<path d="M242.892 42V25.4674C242.892 21.3491 245.399 18.9021 248.92 18.9021C252.322 18.9021 253.994 20.9314 253.994 24.9302V42H262.648V23.5575C262.648 16.1566 258.768 11.8593 251.845 11.8593C247.965 11.8593 244.981 13.4708 242.892 16.7534V0.519226H234.298V42H242.892Z" fill="black"/>
</svg>
