<svg width="140" height="47" viewBox="0 0 140 47" fill="none" xmlns="http://www.w3.org/2000/svg">
<path d="M34.4714 14.2873H29.1854C25.0526 14.2873 21.6888 17.6511 21.6888 21.7838H25.9657C25.9657 20.0058 27.4073 18.5802 29.1693 18.5802H34.4554C35.5286 18.5802 36.3936 19.4452 36.3936 20.5184V22.1202L26.3821 23.9143C23.5149 24.4269 21.4165 26.9257 21.4165 29.841C21.4165 31.6351 22.1693 33.349 23.4989 34.5504C24.6842 35.6236 26.222 36.2163 27.8078 36.2163C28 36.2163 28.1762 36.2003 28.3684 36.1843L36.3936 35.4635V35.944H40.6865V20.5024C40.6865 17.0744 37.8993 14.2873 34.4714 14.2873ZM36.4096 31.1706L28 31.9234C27.4073 31.9715 26.8307 31.7793 26.3982 31.3788C25.9497 30.9783 25.7094 30.4177 25.7094 29.825C25.7094 28.976 26.3181 28.2552 27.151 28.1111L36.4256 26.4612V31.1706H36.4096Z" fill="white"/>
<path d="M55.2952 14.2873H51.0183C46.8856 14.2873 43.5217 17.6511 43.5217 21.7838V35.96H47.7986V21.7678C47.7986 19.9898 49.2403 18.5641 51.0023 18.5641H55.2792C57.0572 18.5641 58.4828 20.0058 58.4828 21.7678V35.944H62.7597V21.7678C62.7757 17.6351 59.4119 14.2873 55.2952 14.2873Z" fill="white"/>
<path d="M113.922 28.7198C113.922 30.4978 112.481 31.9234 110.719 31.9234H106.442C104.664 31.9234 103.238 30.4818 103.238 28.7198V14.5435H98.9611V28.7198C98.9611 32.8525 102.325 36.2163 106.458 36.2163H110.735C114.867 36.2163 118.231 32.8525 118.231 28.7198V14.5435H113.954V28.7198H113.922Z" fill="white"/>
<path d="M87.508 28.7198C87.508 32.8525 90.8719 36.2163 95.0046 36.2163H96.0778V31.9394H94.9886C93.2105 31.9394 91.7849 30.4978 91.7849 28.7358V18.8204H96.0618V14.5436H91.7849V10.2667H87.508V28.7198Z" fill="white"/>
<path d="M72.7071 18.5641H76.984C78.762 18.5641 80.1876 20.0058 80.1876 21.7678H84.4645C84.4645 17.6351 81.1007 14.2712 76.968 14.2712H72.6911C68.5584 14.2712 65.1945 17.6351 65.1945 21.7678V28.7198C65.1945 32.8525 68.5584 36.2163 72.6911 36.2163H76.968C81.1007 36.2163 84.4645 32.8525 84.4645 28.7198H80.1876C80.1876 30.4978 78.746 31.9234 76.984 31.9234H72.7071C70.9291 31.9234 69.5034 30.4818 69.5034 28.7198V21.7678C69.5034 20.0058 70.9451 18.5641 72.7071 18.5641Z" fill="white"/>
<path d="M14.1442 23.8822L5.87872 22.4085C4.94966 22.2484 4.27689 21.4474 4.27689 20.5024C4.27689 19.4291 5.14188 18.5641 6.2151 18.5641H11.5011C13.2792 18.5641 14.7048 20.0058 14.7048 21.7678H18.9817C18.9817 17.6351 15.6178 14.2712 11.4851 14.2712H6.19909C2.78719 14.2873 0 17.0744 0 20.5024C0 23.5138 2.16247 26.0928 5.12586 26.6214L13.3913 28.095C14.3204 28.2552 14.9931 29.0561 14.9931 30.0012C14.9931 31.0744 14.1281 31.9394 13.0549 31.9394H7.76888C5.99085 31.9394 4.56522 30.4978 4.56522 28.7358H0.272311C0.272311 32.8685 3.63616 36.2323 7.76888 36.2323H13.0549C16.4828 36.2323 19.27 33.4452 19.27 30.0172C19.254 26.9898 17.1076 24.4108 14.1442 23.8822Z" fill="white"/>
<path d="M134.778 23.8822L126.513 22.4085C125.584 22.2484 124.911 21.4474 124.911 20.5024C124.911 19.4291 125.776 18.5641 126.849 18.5641H132.135C133.913 18.5641 135.339 20.0058 135.339 21.7678H139.616C139.616 17.6351 136.252 14.2712 132.119 14.2712H126.833C123.405 14.2712 120.618 17.0584 120.618 20.4863C120.618 23.4978 122.78 26.0767 125.744 26.6053L134.009 28.079C134.938 28.2392 135.611 29.0401 135.611 29.9852C135.611 31.0584 134.746 31.9234 133.673 31.9234H128.387C126.609 31.9234 125.183 30.4818 125.183 28.7198H120.906C120.906 32.8525 124.27 36.2163 128.403 36.2163H133.689C137.117 36.2163 139.904 33.4291 139.904 30.0012C139.904 26.9898 137.741 24.4108 134.778 23.8822Z" fill="white"/>
</svg>
