<svg width="24" height="24" viewBox="0 0 24 24" fill="none" xmlns="http://www.w3.org/2000/svg">
<path d="M5.58929 5.875C7.17262 4.29167 9.09524 3.5 11.3571 3.5C13.619 3.5 15.5417 4.29167 17.125 5.875C18.7083 7.45833 19.5 9.38095 19.5 11.6429C19.5 13.9048 18.7083 15.8274 17.125 17.4107C15.5417 18.994 13.619 19.7857 11.3571 19.7857C9.12351 19.7857 7.20089 18.994 5.58929 17.4107L6.90402 16.096C8.11979 17.34 9.60417 17.9621 11.3571 17.9621C13.1101 17.9621 14.5945 17.3542 15.8103 16.1384C17.0543 14.8943 17.6763 13.3958 17.6763 11.6429C17.6763 9.88988 17.0543 8.40551 15.8103 7.18973C14.5945 5.94568 13.1101 5.32366 11.3571 5.32366C9.60417 5.32366 8.10566 5.94568 6.86161 7.18973C5.64583 8.40551 5.03795 9.88988 5.03795 11.6429H7.75223L4.0625 15.2902L4.02009 15.1629L0.5 11.6429H3.21429C3.21429 9.38095 4.00595 7.45833 5.58929 5.875Z" fill="#111111"/>
<path d="M15 11.6441L9 8L9 15.2882L15 11.6441Z" fill="#111111"/>
</svg>
